General
ID                                       : 1 (0x1)
Complete name                            : /home/joe/projects/pvr.jellyfindev/pvr.jellyfin/devlog/apitest/recordings_202511082032/BBC_One_FHD_202511082032.ts
Format                                   : MPEG-TS
File size                                : 35.8 MiB
Duration                                 : 37 s 674 ms
Overall bit rate mode                    : Variable
Overall bit rate                         : 7 982 kb/s
Frame rate                               : 25.000 FPS
Conformance errors                       : 2
 MPEG-TS                                 : Yes
  General compliance                     : File size 37588992 is less than expected size at least 37589080 (offset 0x23D8F9C)
 General compliance                      : Element size 184 is more than maximal permitted size 96 (offset 0x23D8FA0)

Video
ID                                       : 256 (0x100)
Menu ID                                  : 1 (0x1)
Format                                   : AVC
Format/Info                              : Advanced Video Codec
Format profile                           : High@L4
Format settings                          : CABAC / 4 Ref Frames
Format settings, CABAC                   : Yes
Format settings, Reference frames        : 4 frames
Codec ID                                 : 27
Duration                                 : 36 s 660 ms
Bit rate                                 : 7 394 kb/s
Width                                    : 1 920 pixels
Height                                   : 1 080 pixels
Display aspect ratio                     : 16:9
Active Format Description                : Letterbox 16:9 image, with alternative 14:9 center
Frame rate                               : 25.000 FPS
Standard                                 : Component
Color space                              : YUV
Chroma subsampling                       : 4:2:0 (Type 0)
Bit depth                                : 8 bits
Scan type                                : MBAFF
Scan type, store method                  : Interleaved fields
Scan order                               : Top Field First
Bits/(Pixel*Frame)                       : 0.143
Stream size                              : 32.3 MiB (90%)
Color range                              : Limited
Color primaries                          : BT.709
Transfer characteristics                 : BT.709
Matrix coefficients                      : BT.709

Audio
ID                                       : 257 (0x101)
Menu ID                                  : 1 (0x1)
Format                                   : AC-3
Format/Info                              : Audio Coding 3
Commercial name                          : Dolby Digital
Codec ID                                 : 129
Duration                                 : 37 s 536 ms
Bit rate mode                            : Constant
Bit rate                                 : 192 kb/s
Channel(s)                               : 2 channels
Channel layout                           : L R
Sampling rate                            : 48.0 kHz
Frame rate                               : 31.250 FPS (1536 SPF)
Compression mode                         : Lossy
Delay relative to video                  : -94 ms
Stream size                              : 880 KiB (2%)
Language                                 : English
Service kind                             : Complete Main
Dialog Normalization                     : -23 dB
compr                                    : -0.28 dB
dsurmod                                  : Not Dolby Surround encoded
mixlevel                                 : 105 dB
ltrtcmixlev                              : 3.0 dB
ltrtsurmixlev                            : -6.0 dB
lorocmixlev                              : 3.0 dB
lorosurmixlev                            : -6.0 dB
dialnorm_Average                         : -23 dB
dialnorm_Minimum                         : -23 dB
dialnorm_Maximum                         : -23 dB

Menu
ID                                       : 4096 (0x1000)
Menu ID                                  : 1 (0x1)
Format                                   : AVC / AC-3
Duration                                 : 37 s 440 ms
List                                     : 256 (0x100) (AVC) / 257 (0x101) (AC-3, English)
Language                                 :  / English
Service name                             : Service01
Service provider                         : FFmpeg
Service type                             : digital television


